<?xml version="1.0" standalone="no"?>
<!DOCTYPE svg PUBLIC "-//W3C//DTD SVG 20010904//EN"
 "http://www.w3.org/TR/2001/REC-SVG-20010904/DTD/svg10.dtd">
<svg version="1.0" xmlns="http://www.w3.org/2000/svg"
 width="1067.000000pt" height="1067.000000pt" viewBox="0 0 1067.000000 1067.000000"
 preserveAspectRatio="xMidYMid meet">
<metadata>
Created by potrace 1.11, written by Peter Selinger 2001-2013
</metadata>
<g transform="translate(0.000000,1067.000000) scale(0.100000,-0.100000)"
fill="#000000" stroke="none">
<path d="M440 10048 c-51 -41 -48 -153 9 -343 24 -77 44 -144 45 -150 1 -5 10
-37 19 -70 10 -33 22 -78 28 -100 6 -22 14 -47 17 -55 6 -18 9 -29 16 -55 6
-26 115 -406 121 -423 2 -7 5 -14 5 -17 1 -3 6 -19 11 -37 11 -36 14 -46 28
-98 23 -84 52 -186 58 -200 3 -8 7 -20 8 -26 2 -7 15 -54 30 -105 15 -52 31
-107 36 -124 4 -16 24 -86 44 -155 20 -69 38 -132 40 -140 2 -8 31 -109 65
-225 34 -115 68 -235 76 -265 8 -30 19 -68 24 -85 5 -16 19 -64 31 -105 12
-41 24 -82 27 -90 3 -8 7 -24 9 -35 2 -11 7 -31 12 -45 5 -14 14 -45 21 -70 7
-25 16 -56 21 -70 5 -14 26 -88 48 -165 77 -273 182 -640 190 -665 5 -14 14
-45 21 -70 7 -25 19 -64 26 -87 7 -23 16 -52 18 -65 7 -29 20 -77 41 -148 9
-30 25 -84 35 -120 10 -36 35 -121 55 -190 20 -69 45 -156 56 -195 11 -38 22
-77 26 -85 3 -8 8 -24 10 -35 2 -11 10 -40 18 -65 8 -25 16 -54 18 -65 2 -11
7 -27 10 -35 8 -22 103 -349 137 -475 5 -16 18 -61 30 -100 12 -38 26 -86 30
-105 5 -19 16 -57 24 -85 8 -27 21 -75 29 -105 8 -30 20 -67 26 -83 6 -15 8
-27 5 -27 -4 0 -2 -6 4 -13 6 -7 13 -24 15 -37 2 -14 7 -32 10 -40 4 -8 8 -27
11 -42 3 -15 7 -32 11 -38 3 -5 8 -18 10 -27 2 -10 13 -52 25 -93 12 -41 29
-104 40 -140 10 -36 36 -128 59 -205 23 -77 43 -147 45 -155 17 -63 38 -136
56 -195 11 -38 22 -77 24 -85 2 -8 34 -118 71 -245 36 -126 68 -237 70 -245
12 -47 47 -167 52 -180 4 -8 14 -44 24 -80 10 -36 27 -99 39 -140 12 -41 26
-88 30 -105 5 -16 40 -140 80 -275 39 -135 80 -276 91 -315 31 -112 51 -181
68 -233 5 -18 11 -36 12 -40 10 -40 40 -145 54 -192 12 -40 35 -122 41 -142 1
-5 2 -9 4 -10 1 -2 3 -12 5 -22 2 -10 10 -40 18 -65 9 -25 20 -65 27 -89 19
-74 24 -75 323 -73 144 1 269 1 277 1 8 0 116 0 240 0 124 0 232 0 240 0 8 0
116 0 240 0 124 0 232 0 240 0 8 0 116 0 240 0 124 0 232 0 240 0 8 0 116 0
240 0 124 0 232 0 240 0 8 0 116 0 240 0 124 0 232 0 240 0 8 0 116 0 240 0
124 0 232 0 240 0 8 0 116 0 240 0 124 0 232 0 240 0 8 0 116 0 240 0 265 0
229 1 361 -1 121 -2 152 10 164 64 10 42 7 31 54 202 23 83 44 157 46 165 6
26 43 161 64 235 10 39 29 106 41 150 11 44 27 100 35 125 8 25 17 56 19 70 7
35 36 142 43 160 3 8 7 20 8 25 2 6 12 46 24 91 12 44 24 87 25 95 2 8 6 21 9
29 7 16 34 115 47 170 4 19 17 67 28 105 11 39 30 104 41 145 11 41 41 149 66
240 25 91 49 179 52 195 3 17 9 38 14 47 5 10 7 18 3 18 -3 0 -2 6 3 13 6 6
14 30 18 52 5 22 10 45 11 50 2 6 8 28 14 50 6 22 13 47 15 55 2 8 13 47 24
85 11 39 24 85 30 103 5 18 9 33 9 35 0 3 23 88 30 107 3 8 7 22 8 30 2 8 24
89 49 180 25 91 48 175 51 187 2 12 9 34 14 49 6 14 8 30 4 35 -3 5 -1 9 4 9
5 0 9 6 9 13 0 6 8 39 18 72 10 33 19 67 20 75 1 8 4 22 8 30 5 14 47 161 52
185 1 6 7 30 14 55 7 25 15 52 17 60 2 8 8 32 14 53 5 20 15 54 20 75 6 20 13
46 16 57 3 11 7 27 9 35 1 8 5 22 8 30 4 8 20 67 37 130 16 63 35 129 41 147
5 18 12 40 14 50 5 20 14 52 45 163 11 41 22 82 24 90 3 8 16 58 30 110 15 52
28 102 30 110 11 47 29 110 42 147 7 24 16 57 19 75 3 17 8 35 11 40 3 4 7 16
9 25 1 10 10 45 19 78 9 33 19 69 22 80 3 11 6 25 8 30 1 6 8 30 15 55 32 119
54 199 67 241 8 25 17 55 19 67 3 12 7 32 10 44 2 12 11 42 19 67 13 41 29
105 30 123 1 3 4 10 9 14 4 4 7 15 7 24 0 10 9 45 20 79 11 34 21 72 23 84 2
12 7 29 10 37 12 29 36 120 32 120 -2 0 3 16 11 35 8 19 13 38 12 42 0 5 1 15
4 23 10 26 182 647 193 699 2 9 18 66 35 126 34 119 38 135 44 165 3 11 7 24
10 28 3 5 7 19 10 33 5 22 20 80 31 119 34 120 84 306 88 325 2 6 6 16 10 23
5 6 6 12 3 12 -2 0 0 15 6 33 5 17 14 48 19 67 5 19 12 44 15 55 3 11 7 27 8
35 1 9 5 20 8 25 3 6 9 26 14 45 11 48 10 44 39 145 14 50 28 101 31 115 3 14
9 39 15 55 13 41 78 276 85 306 3 13 6 29 8 34 1 6 8 30 15 55 7 25 14 51 16
58 3 7 5 13 5 15 1 1 5 18 10 37 5 19 23 85 40 145 56 197 58 209 54 265 -5
79 -11 101 -31 116 -10 7 -20 14 -23 15 -3 1 -2222 2 -4932 3 -4696 1 -4927 1
-4948 -16z"/>
</g>
</svg>
